<svg width="55" height="55" viewBox="0 0 55 55" fill="none" xmlns="http://www.w3.org/2000/svg">
<rect width="55" height="55" rx="27.5" fill="#A5D1D0"/>
<path d="M27.5 43C26.0185 43 24.8333 42.5867 23.9444 41.76C23.1296 40.9333 22.7222 39.8436 22.7222 38.4909C22.7222 37.5891 22.9074 36.8376 23.2778 36.2364C23.7222 35.6352 24.2407 35.0715 24.8333 34.5455C25.4259 33.9442 25.9074 33.343 26.2778 32.7418C26.7222 32.1406 26.9444 31.4267 26.9444 30.6C26.9444 29.9988 26.8333 29.5855 26.6111 29.36C26.463 29.0594 26.0185 29.1345 25.2778 29.5855C24.463 30.1115 23.9074 30.8255 23.6111 31.7273C23.3148 32.6291 23.0556 33.5685 22.8333 34.5455C22.6111 35.5224 22.1296 36.3491 21.3889 37.0255C20.7222 37.7018 19.6111 38.04 18.0556 38.04C16.7222 38.04 15.6111 37.5139 14.7222 36.4618C13.9074 35.4097 13.5 34.1321 13.5 32.6291C13.5 31.2012 13.9444 30.0364 14.8333 29.1345C15.7222 28.2327 16.8704 27.7818 18.2778 27.7818C19.3148 27.7818 20.1296 27.9697 20.7222 28.3455C21.3889 28.7212 22.0185 28.9842 22.6111 29.1345C23.2037 29.2848 23.9074 29.0594 24.7222 28.4582C25.3148 28.0824 25.537 27.7067 25.3889 27.3309C25.3148 26.9551 25.0926 26.6921 24.7222 26.5418C23.9074 25.9406 23.2037 25.7151 22.6111 25.8655C22.0185 26.0158 21.3889 26.2788 20.7222 26.6545C20.1296 27.0303 19.3148 27.2182 18.2778 27.2182C16.8704 27.2182 15.7222 26.7673 14.8333 25.8655C13.9444 24.9636 13.5 23.7988 13.5 22.3709C13.5 20.8679 13.9074 19.5903 14.7222 18.5382C15.6111 17.4861 16.7222 16.96 18.0556 16.96C19.6111 16.96 20.7222 17.2982 21.3889 17.9745C22.1296 18.6509 22.6111 19.4776 22.8333 20.4545C23.0556 21.4315 23.3148 22.4085 23.6111 23.3855C23.9074 24.2873 24.463 24.9636 25.2778 25.4145C26.0185 25.8655 26.463 25.9782 26.6111 25.7527C26.8333 25.4521 26.9444 25.0012 26.9444 24.4C26.9444 23.6485 26.7222 22.9721 26.2778 22.3709C25.9074 21.7697 25.4259 21.1685 24.8333 20.5673C24.2407 19.9661 23.7222 19.3648 23.2778 18.7636C22.9074 18.0873 22.7222 17.3358 22.7222 16.5091C22.7222 15.1564 23.1296 14.0667 23.9444 13.24C24.8333 12.4133 26.0185 12 27.5 12C28.9815 12 30.1296 12.4133 30.9444 13.24C31.8333 14.0667 32.2778 15.1564 32.2778 16.5091C32.2778 17.4109 32.0556 18.2 31.6111 18.8764C31.2407 19.4776 30.7593 20.0788 30.1667 20.68C29.5741 21.2061 29.0556 21.7697 28.6111 22.3709C28.2407 22.9721 28.0556 23.6485 28.0556 24.4C28.0556 25.0012 28.1296 25.4521 28.2778 25.7527C28.5 25.9782 28.9815 25.8655 29.7222 25.4145C30.537 24.8885 31.0926 24.1745 31.3889 23.2727C31.6852 22.3709 31.9444 21.4315 32.1667 20.4545C32.3889 19.4776 32.8333 18.6509 33.5 17.9745C34.2407 17.2982 35.3889 16.96 36.9444 16.96C38.2778 16.96 39.3519 17.4861 40.1667 18.5382C41.0556 19.5903 41.5 20.8679 41.5 22.3709C41.5 23.7988 41.0556 24.9636 40.1667 25.8655C39.2778 26.7673 38.1296 27.2182 36.7222 27.2182C35.7593 27.2182 34.9444 27.0303 34.2778 26.6545C33.6111 26.2788 32.9815 26.0158 32.3889 25.8655C31.7963 25.7151 31.0926 25.9406 30.2778 26.5418C29.9815 26.6921 29.7593 26.9551 29.6111 27.3309C29.463 27.7067 29.6852 28.0824 30.2778 28.4582C31.0926 29.0594 31.7963 29.2848 32.3889 29.1345C32.9815 28.9842 33.6111 28.7212 34.2778 28.3455C34.9444 27.9697 35.7593 27.7818 36.7222 27.7818C38.1296 27.7818 39.2778 28.2327 40.1667 29.1345C41.0556 30.0364 41.5 31.2012 41.5 32.6291C41.5 34.1321 41.0556 35.4097 40.1667 36.4618C39.3519 37.5139 38.2778 38.04 36.9444 38.04C35.6852 38.04 34.7222 37.8145 34.0556 37.3636C33.3889 36.9127 32.9074 36.3491 32.6111 35.6727C32.3148 34.9212 32.0556 34.1697 31.8333 33.4182C31.6852 32.5915 31.463 31.84 31.1667 31.1636C30.8704 30.4873 30.3889 29.9612 29.7222 29.5855C28.9815 29.1345 28.5 29.0594 28.2778 29.36C28.1296 29.5855 28.0556 29.9988 28.0556 30.6C28.0556 31.4267 28.2407 32.1406 28.6111 32.7418C29.0556 33.343 29.5741 33.9442 30.1667 34.5455C30.7593 35.0715 31.2407 35.6352 31.6111 36.2364C32.0556 36.8376 32.2778 37.5891 32.2778 38.4909C32.2778 39.8436 31.8333 40.9333 30.9444 41.76C30.1296 42.5867 28.9815 43 27.5 43Z" fill="#D80A36"/>
</svg>
