<svg width="28" height="31" viewBox="0 0 28 31" fill="none" xmlns="http://www.w3.org/2000/svg">
<path d="M14 31C12.5185 31 11.3333 30.5867 10.4444 29.76C9.62963 28.9333 9.22222 27.8436 9.22222 26.4909C9.22222 25.5891 9.40741 24.8376 9.77778 24.2364C10.2222 23.6352 10.7407 23.0715 11.3333 22.5455C11.9259 21.9442 12.4074 21.343 12.7778 20.7418C13.2222 20.1406 13.4444 19.4267 13.4444 18.6C13.4444 17.9988 13.3333 17.5855 13.1111 17.36C12.963 17.0594 12.5185 17.1345 11.7778 17.5855C10.963 18.1115 10.4074 18.8255 10.1111 19.7273C9.81481 20.6291 9.55556 21.5685 9.33333 22.5455C9.11111 23.5224 8.62963 24.3491 7.88889 25.0255C7.22222 25.7018 6.11111 26.04 4.55556 26.04C3.22222 26.04 2.11111 25.5139 1.22222 24.4618C0.407407 23.4097 0 22.1321 0 20.6291C0 19.2012 0.444445 18.0364 1.33333 17.1345C2.22222 16.2327 3.37037 15.7818 4.77778 15.7818C5.81481 15.7818 6.62963 15.9697 7.22222 16.3455C7.88889 16.7212 8.51852 16.9842 9.11111 17.1345C9.7037 17.2848 10.4074 17.0594 11.2222 16.4582C11.8148 16.0824 12.037 15.7067 11.8889 15.3309C11.8148 14.9551 11.5926 14.6921 11.2222 14.5418C10.4074 13.9406 9.7037 13.7151 9.11111 13.8655C8.51852 14.0158 7.88889 14.2788 7.22222 14.6545C6.62963 15.0303 5.81481 15.2182 4.77778 15.2182C3.37037 15.2182 2.22222 14.7673 1.33333 13.8655C0.444445 12.9636 0 11.7988 0 10.3709C0 8.86788 0.407407 7.5903 1.22222 6.53818C2.11111 5.48606 3.22222 4.96 4.55556 4.96C6.11111 4.96 7.22222 5.29818 7.88889 5.97454C8.62963 6.65091 9.11111 7.47757 9.33333 8.45454C9.55556 9.43151 9.81481 10.4085 10.1111 11.3855C10.4074 12.2873 10.963 12.9636 11.7778 13.4145C12.5185 13.8655 12.963 13.9782 13.1111 13.7527C13.3333 13.4521 13.4444 13.0012 13.4444 12.4C13.4444 11.6485 13.2222 10.9721 12.7778 10.3709C12.4074 9.7697 11.9259 9.16848 11.3333 8.56727C10.7407 7.96606 10.2222 7.36485 9.77778 6.76364C9.40741 6.08727 9.22222 5.33576 9.22222 4.50909C9.22222 3.15636 9.62963 2.06667 10.4444 1.24C11.3333 0.413333 12.5185 0 14 0C15.4815 0 16.6296 0.413333 17.4444 1.24C18.3333 2.06667 18.7778 3.15636 18.7778 4.50909C18.7778 5.41091 18.5556 6.2 18.1111 6.87636C17.7407 7.47758 17.2593 8.07879 16.6667 8.68C16.0741 9.20606 15.5556 9.7697 15.1111 10.3709C14.7407 10.9721 14.5556 11.6485 14.5556 12.4C14.5556 13.0012 14.6296 13.4521 14.7778 13.7527C15 13.9782 15.4815 13.8655 16.2222 13.4145C17.037 12.8885 17.5926 12.1745 17.8889 11.2727C18.1852 10.3709 18.4444 9.43151 18.6667 8.45454C18.8889 7.47757 19.3333 6.65091 20 5.97454C20.7407 5.29818 21.8889 4.96 23.4444 4.96C24.7778 4.96 25.8519 5.48606 26.6667 6.53818C27.5556 7.5903 28 8.86788 28 10.3709C28 11.7988 27.5556 12.9636 26.6667 13.8655C25.7778 14.7673 24.6296 15.2182 23.2222 15.2182C22.2593 15.2182 21.4444 15.0303 20.7778 14.6545C20.1111 14.2788 19.4815 14.0158 18.8889 13.8655C18.2963 13.7151 17.5926 13.9406 16.7778 14.5418C16.4815 14.6921 16.2593 14.9551 16.1111 15.3309C15.963 15.7067 16.1852 16.0824 16.7778 16.4582C17.5926 17.0594 18.2963 17.2848 18.8889 17.1345C19.4815 16.9842 20.1111 16.7212 20.7778 16.3455C21.4444 15.9697 22.2593 15.7818 23.2222 15.7818C24.6296 15.7818 25.7778 16.2327 26.6667 17.1345C27.5556 18.0364 28 19.2012 28 20.6291C28 22.1321 27.5556 23.4097 26.6667 24.4618C25.8519 25.5139 24.7778 26.04 23.4444 26.04C22.1852 26.04 21.2222 25.8145 20.5556 25.3636C19.8889 24.9127 19.4074 24.3491 19.1111 23.6727C18.8148 22.9212 18.5556 22.1697 18.3333 21.4182C18.1852 20.5915 17.963 19.84 17.6667 19.1636C17.3704 18.4873 16.8889 17.9612 16.2222 17.5855C15.4815 17.1345 15 17.0594 14.7778 17.36C14.6296 17.5855 14.5556 17.9988 14.5556 18.6C14.5556 19.4267 14.7407 20.1406 15.1111 20.7418C15.5556 21.343 16.0741 21.9442 16.6667 22.5455C17.2593 23.0715 17.7407 23.6352 18.1111 24.2364C18.5556 24.8376 18.7778 25.5891 18.7778 26.4909C18.7778 27.8436 18.3333 28.9333 17.4444 29.76C16.6296 30.5867 15.4815 31 14 31Z" fill="#D80A36"/>
</svg>
