<svg width="109" height="108" viewBox="0 0 109 108" fill="none" xmlns="http://www.w3.org/2000/svg">
<path d="M40.1016 107.082C34.9408 105.695 31.1928 103.169 28.8577 99.5044C26.7806 95.9088 26.3649 91.7932 27.6107 87.1577C28.4412 84.0673 29.7784 81.6654 31.6223 79.9519C33.7243 78.3078 36.0496 76.8617 38.5984 75.6138C41.2164 74.1084 43.4473 72.4989 45.2912 70.7854C47.3932 69.1413 48.8248 66.9028 49.5861 64.07C50.1398 62.0098 50.1334 60.4893 49.5669 59.5087C49.3277 58.3399 47.7102 58.1813 44.7145 59.033C41.3916 60.0729 38.7988 61.9993 36.9361 64.8123C35.0735 67.6252 33.3052 70.6016 31.6313 73.7414C29.9575 76.8813 27.5189 79.2633 24.3156 80.8876C21.3703 82.5812 17.1883 82.6999 11.7695 81.2436C7.12476 79.9953 3.73865 77.1524 1.61112 72.7148C-0.258361 68.3466 -0.500993 63.5872 0.883226 58.4366C2.19823 53.5435 4.81923 49.9679 8.74624 47.7098C12.6732 45.4516 17.0881 44.9813 21.9909 46.2989C25.6034 47.2698 28.2688 48.6765 29.9871 50.5189C31.9634 52.4307 33.9145 53.9215 35.8404 54.9913C37.7663 56.0612 40.4253 55.9474 43.8174 54.65C46.2278 53.9171 47.348 52.8375 47.1779 51.4112C47.266 50.0542 46.7341 48.9448 45.5823 48.083C43.2975 45.26 41.0538 43.8286 38.8511 43.7888C36.6483 43.7491 34.2128 44.061 31.5443 44.7245C29.134 45.4574 26.1225 45.3384 22.51 44.3675C17.6072 43.0499 14.0229 40.4298 11.7569 36.5073C9.49097 32.5848 9.01549 28.177 10.3305 23.2839C11.7147 18.1334 14.3105 14.1368 18.1179 11.2942C22.1833 8.52098 26.5384 7.75851 31.1831 9.00677C36.6019 10.4631 40.1611 12.6622 41.8605 15.6041C43.818 18.6153 44.734 21.8989 44.6084 25.4548C44.4827 29.0107 44.4861 32.6013 44.6186 36.2266C44.8202 39.5943 46.1326 42.4322 48.5557 44.7402C50.7209 46.9788 52.1653 47.7812 52.889 47.1473C53.94 46.3253 54.7423 44.8841 55.296 42.8239C55.9881 40.2486 55.8369 37.7228 54.8423 35.2465C54.1058 32.8395 52.9822 30.3285 51.4716 27.7135C49.961 25.0985 48.7084 22.5528 47.7138 20.0765C47.0465 17.412 47.0936 14.6634 47.8549 11.8305C49.1007 7.19503 51.5234 3.84228 55.1232 1.77229C58.981 -0.228343 63.4903 -0.535177 68.6511 0.851787C73.8119 2.23875 77.4308 4.73005 79.5079 8.32569C81.8431 11.9907 82.3878 16.1409 81.142 20.7764C80.3114 23.8668 78.8106 26.3628 76.6395 28.2645C74.7956 29.978 72.5646 31.5874 69.9466 33.0929C67.3979 34.3408 65.0725 35.7868 62.9706 37.431C61.1267 39.1445 59.8587 41.2888 59.1666 43.8641C58.6129 45.9243 58.4557 47.5389 58.6949 48.7077C59.2614 49.6883 61.0425 49.7528 64.0381 48.9011C67.361 47.8612 69.9538 45.9348 71.8165 43.1219C73.6792 40.3089 75.4475 37.3325 77.1213 34.1927C78.7952 31.0529 81.1048 28.6361 84.05 26.9425C87.2533 25.3182 91.5644 25.2342 96.9832 26.6905C101.628 27.9388 104.885 30.7471 106.754 35.1153C108.882 39.5529 109.254 44.347 107.869 49.4975C106.554 54.3906 103.933 57.9662 100.006 60.2243C96.0794 62.4825 91.6646 62.9528 86.7618 61.6352C83.4073 60.7336 80.7419 59.327 78.7656 57.4152C76.7893 55.5034 74.8382 54.0126 72.9123 52.9428C70.9864 51.8729 68.3274 51.9867 64.9353 53.2841C63.7647 53.5218 62.7483 54.2151 61.8862 55.364C61.0241 56.513 61.4521 58.0087 63.1704 59.8511C65.4551 62.6742 67.6989 64.1055 69.9016 64.1453C72.1043 64.185 74.5399 63.8731 77.2083 63.2096C79.8767 62.5461 82.8882 62.6651 86.2427 63.5666C91.1455 64.8842 94.7298 67.5043 96.9958 71.4268C99.2617 75.3494 99.7372 79.7571 98.4222 84.6502C97.038 89.8008 94.3131 93.7627 90.2477 96.5359C86.4403 99.3784 82.2143 100.176 77.5696 98.9273C73.1829 97.7484 70.036 96.0743 68.1289 93.905C66.2218 91.7357 65.0637 89.3535 64.6544 86.7583C64.3143 83.9056 64.1033 81.0876 64.0213 78.3043C64.2665 75.3328 64.1845 72.5495 63.7753 69.9543C63.366 67.3592 62.1732 65.1057 60.1969 63.1939C58.0318 60.9553 56.4238 60.247 55.3728 61.069C54.6491 61.7029 54.0104 63.05 53.4567 65.1102C52.6954 67.943 52.683 70.5629 53.4195 72.9699C54.414 75.4462 55.6666 77.9919 57.1773 80.6069C58.7571 82.9644 59.9153 85.3466 60.6518 87.7536C61.6463 90.2299 61.7283 93.0132 60.8978 96.1036C59.652 100.739 57.1002 104.057 53.2424 106.058C49.6427 108.128 45.2624 108.469 40.1016 107.082Z" fill="#D80A36"/>
</svg>
