<svg width="44" height="46" viewBox="0 0 44 46" fill="none" xmlns="http://www.w3.org/2000/svg">
<path d="M8.3786 45.5L8.13934 44.5605L9.49579 43.8213L9.56903 43.7812L9.65106 43.7676L20.1218 41.9902L20.1218 22.9971L1.77509 1.32324L1.07782 0.5L42.3005 0.5L41.6042 1.32324L23.2565 22.999L23.2565 41.9844L34.7077 43.7666L34.7849 43.7783L34.8542 43.8135L36.3337 44.5527L36.11 45.5L8.3786 45.5Z" stroke="#D80A36"/>
<path d="M8.3783 45.5L8.13904 44.5605L9.49548 43.8213L9.56873 43.7812L9.65076 43.7676L20.1224 41.9902L20.1224 22.998L10.2787 11.3057L9.5863 10.4834L33.9291 10.4834L33.226 11.3076L23.2572 22.999L23.2572 41.9844L34.7074 43.7666L34.7845 43.7783L34.8539 43.8135L36.3334 44.5527L36.1097 45.5L8.3783 45.5Z" fill="#D80A36" stroke="#D80A36"/>
</svg>
