<svg width="1441" height="465" viewBox="0 0 1441 465" fill="none" xmlns="http://www.w3.org/2000/svg">
<path d="M-15.6814 294.718L191.464 278.713C260.13 273.408 329.105 283.798 393.164 309.097L515.252 357.313C601.721 391.463 700.083 373.398 768.764 310.755C816.411 267.296 879.357 244.518 943.786 247.421L1041.45 251.819C1156.62 257.007 1269.82 220.55 1360.31 149.119L1473.28 59.9422" stroke="#A5D1D0" stroke-width="88"/>
<path d="M22.6722 299.771C19.3157 299.925 16.5964 299.305 14.5142 297.911C12.4309 296.493 11.1586 294.425 10.6973 291.707L16.0198 291.463C16.2515 292.846 16.9735 293.918 18.1857 294.679C19.3968 295.416 20.9134 295.743 22.7355 295.66C24.222 295.592 25.3487 295.276 26.1156 294.712C26.9065 294.147 27.2816 293.421 27.2408 292.534C27.2023 291.695 26.9317 291.035 26.429 290.553C25.9253 290.048 25.0789 289.666 23.8898 289.408L19.0097 288.299C16.5083 287.717 14.6547 286.853 13.4488 285.707C12.2658 284.536 11.6324 283.039 11.5487 281.217C11.4771 279.659 11.811 278.298 12.5504 277.135C13.3126 275.947 14.4112 275.019 15.8462 274.353C17.28 273.663 18.9799 273.272 20.9458 273.182C23.9667 273.044 26.4092 273.653 28.2734 275.009C30.1365 276.341 31.2419 278.176 31.5897 280.515L26.2672 280.759C25.9691 279.499 25.3387 278.591 24.3762 278.034C23.4376 277.477 22.249 277.231 20.8105 277.297C19.5638 277.354 18.5799 277.639 17.8587 278.153C17.1375 278.666 16.7957 279.331 16.8331 280.146C16.8618 280.769 17.092 281.335 17.5238 281.844C17.9545 282.329 18.8255 282.721 20.1366 283.022L25.0167 284.131C27.59 284.71 29.4562 285.586 30.6152 286.758C31.7971 287.905 32.4305 289.401 32.5153 291.247C32.6343 293.837 31.8267 295.868 30.0925 297.341C28.3583 298.814 25.8848 299.624 22.6722 299.771ZM35.4723 298.86L34.2824 272.967L46.5816 272.404C48.4996 272.316 50.1573 272.576 51.5547 273.185C52.9761 273.792 54.0859 274.679 54.8842 275.843C55.7065 277.007 56.1546 278.392 56.2284 279.998C56.3022 281.604 55.9836 283.036 55.2726 284.294C54.5616 285.552 53.5268 286.561 52.1682 287.32C50.8325 288.054 49.2176 288.464 47.3236 288.551L39.4119 288.913L39.2169 284.67L46.8409 284.32C48.1115 284.262 49.0785 283.869 49.7419 283.142C50.4281 282.39 50.7447 281.439 50.6918 280.288C50.639 279.137 50.2369 278.231 49.4857 277.568C48.7585 276.905 47.7595 276.602 46.4889 276.66L40.0156 276.957L41.0105 298.606L35.4723 298.86ZM72.0614 297.543C70.1435 297.631 68.3544 297.389 66.6944 296.816C65.0583 296.243 63.6139 295.396 62.3612 294.276C61.1313 293.131 60.1433 291.759 59.3971 290.16C58.6737 288.535 58.2664 286.728 58.1749 284.738C58.0537 282.101 58.5114 279.773 59.5478 277.756C60.5832 275.714 62.0705 274.096 64.0098 272.902C65.973 271.707 68.2373 271.051 70.8026 270.933C73.4158 270.814 75.7428 271.259 77.7834 272.271C79.824 273.283 81.4534 274.758 82.6717 276.696C83.9139 278.633 84.5956 280.92 84.7168 283.557C84.8071 285.523 84.5547 287.349 83.9594 289.034C83.387 290.694 82.529 292.151 81.3853 293.404C80.2645 294.633 78.9038 295.608 77.3033 296.33C75.7267 297.051 73.9794 297.456 72.0614 297.543ZM71.8239 293.158C73.3343 293.089 74.6473 292.644 75.7628 291.824C76.8784 291.004 77.7289 289.908 78.3146 288.536C78.9231 287.138 79.186 285.541 79.1034 283.743C79.0218 281.968 78.6271 280.437 77.9192 279.148C77.2113 277.859 76.2654 276.881 75.0815 276.215C73.8977 275.548 72.5386 275.25 71.0042 275.321C69.4938 275.39 68.1797 275.81 67.0619 276.582C65.9442 277.354 65.092 278.415 64.5052 279.763C63.9414 281.086 63.7008 282.647 63.7834 284.445C63.8671 286.267 64.264 287.846 64.9742 289.183C65.6832 290.496 66.6307 291.51 67.8168 292.224C69.0017 292.915 70.3374 293.226 71.8239 293.158ZM100.93 296.22C99.0117 296.308 97.2227 296.066 95.5626 295.493C93.9266 294.92 92.4822 294.073 91.2294 292.953C89.9996 291.808 89.0115 290.436 88.2653 288.836C87.542 287.212 87.1346 285.405 87.0432 283.415C86.922 280.778 87.3796 278.45 88.4161 276.433C89.4515 274.391 90.9388 272.773 92.878 271.579C94.8412 270.384 97.1055 269.728 99.6708 269.61C102.284 269.49 104.611 269.936 106.652 270.948C108.692 271.96 110.322 273.435 111.54 275.373C112.782 277.31 113.464 279.597 113.585 282.234C113.675 284.2 113.423 286.026 112.828 287.711C112.255 289.371 111.397 290.827 110.254 292.081C109.133 293.31 107.772 294.285 106.172 295.007C104.595 295.728 102.848 296.132 100.93 296.22ZM100.692 291.835C102.203 291.765 103.516 291.321 104.631 290.501C105.747 289.681 106.597 288.585 107.183 287.213C107.791 285.815 108.054 284.218 107.972 282.419C107.89 280.645 107.495 279.114 106.787 277.825C106.08 276.536 105.134 275.558 103.95 274.892C102.766 274.225 101.407 273.927 99.8724 273.998C98.362 274.067 97.0479 274.487 95.9302 275.259C94.8124 276.031 93.9602 277.091 93.3735 278.44C92.8096 279.763 92.569 281.324 92.6516 283.122C92.7354 284.944 93.1323 286.523 93.8424 287.86C94.5514 289.173 95.499 290.187 96.685 290.901C97.87 291.592 99.2057 291.903 100.692 291.835ZM117.055 295.121L115.865 269.228L121.403 268.974L122.593 294.867L117.055 295.121ZM120.213 281.498L131.293 268.521L138.665 268.183L126.938 281.19L120.213 281.498ZM133.058 294.387L120.141 281.501L126.938 281.19L140.574 294.043L133.058 294.387ZM151.244 293.554L150.763 283.089L140.416 268.103L147.069 267.798L155.323 281.15L152.194 281.294L159.152 267.244L165.23 266.966L156.301 282.835L156.782 293.3L151.244 293.554ZM186.307 292.028C182.954 292.233 180.225 291.655 178.122 290.292C176.017 288.906 174.714 286.858 174.211 284.148L179.529 283.823C179.782 285.202 180.52 286.263 181.744 287.005C182.966 287.724 184.487 288.028 186.308 287.917C187.793 287.826 188.915 287.493 189.673 286.918C190.455 286.341 190.819 285.609 190.765 284.723C190.714 283.885 190.433 283.228 189.923 282.755C189.412 282.257 188.56 281.888 187.367 281.649L182.471 280.613C179.961 280.069 178.094 279.234 176.871 278.106C175.67 276.953 175.014 275.466 174.903 273.646C174.807 272.089 175.12 270.723 175.842 269.549C176.586 268.349 177.67 267.405 179.095 266.717C180.518 266.005 182.212 265.589 184.176 265.469C187.195 265.285 189.646 265.856 191.531 267.184C193.414 268.487 194.547 270.305 194.93 272.638L189.612 272.963C189.295 271.708 188.651 270.81 187.68 270.268C186.733 269.725 185.541 269.497 184.104 269.585C182.858 269.661 181.878 269.962 181.165 270.486C180.452 271.01 180.12 271.68 180.17 272.494C180.208 273.117 180.447 273.68 180.887 274.182C181.325 274.66 182.201 275.039 183.517 275.32L188.413 276.355C190.995 276.894 192.874 277.741 194.051 278.896C195.25 280.025 195.907 281.511 196.019 283.356C196.178 285.943 195.401 287.986 193.69 289.485C191.978 290.985 189.517 291.832 186.307 292.028ZM198.697 290.996L197.906 265.088L203.448 264.92L204.239 290.827L198.697 290.996ZM201.288 290.917L201.159 286.671L217.855 286.163L217.985 290.409L201.288 290.917ZM200.948 279.762L200.82 275.588L216.257 275.119L216.385 279.293L200.948 279.762ZM200.627 269.255L200.497 265.009L216.762 264.515L216.891 268.761L200.627 269.255ZM219.656 290.379L228.991 264.478L233.743 264.487L225.164 290.39L219.656 290.379ZM238.664 290.416L230.215 264.48L235.183 264.49L244.424 290.428L238.664 290.416ZM224.57 280.345L239.114 280.373L239.106 284.693L224.562 284.665L224.57 280.345ZM255.863 291.272C252.506 291.128 249.852 290.27 247.901 288.697C245.952 287.1 244.867 284.927 244.649 282.18L249.972 282.408C250.08 283.806 250.704 284.937 251.845 285.803C252.986 286.645 254.467 287.105 256.29 287.183C257.776 287.246 258.927 287.032 259.74 286.538C260.578 286.045 261.016 285.356 261.054 284.468C261.09 283.629 260.879 282.947 260.421 282.423C259.964 281.875 259.155 281.42 257.993 281.058L253.23 279.521C250.79 278.72 249.02 277.695 247.921 276.447C246.846 275.175 246.347 273.629 246.425 271.806C246.492 270.248 246.945 268.922 247.785 267.829C248.649 266.713 249.825 265.887 251.314 265.35C252.803 264.789 254.531 264.551 256.497 264.635C259.518 264.765 261.897 265.587 263.634 267.103C265.372 268.595 266.311 270.521 266.45 272.881L261.127 272.653C260.941 271.372 260.394 270.411 259.484 269.772C258.599 269.133 257.437 268.783 255.998 268.722C254.751 268.668 253.746 268.865 252.982 269.313C252.218 269.761 251.819 270.392 251.784 271.207C251.757 271.831 251.936 272.415 252.322 272.96C252.708 273.481 253.54 273.949 254.82 274.364L259.583 275.902C262.095 276.706 263.876 277.743 264.927 279.013C266.002 280.261 266.501 281.807 266.422 283.654C266.311 286.243 265.327 288.195 263.469 289.508C261.611 290.822 259.076 291.41 255.863 291.272ZM280.511 293.071C278.599 292.893 276.861 292.405 275.296 291.608C273.756 290.813 272.442 289.774 271.357 288.492C270.297 287.188 269.509 285.692 268.991 284.004C268.5 282.295 268.347 280.449 268.532 278.466C268.777 275.837 269.553 273.596 270.859 271.741C272.167 269.863 273.864 268.467 275.95 267.553C278.06 266.641 280.394 266.305 282.95 266.544C285.555 266.787 287.798 267.551 289.679 268.835C291.56 270.12 292.969 271.806 293.907 273.895C294.869 275.985 295.227 278.345 294.982 280.973C294.799 282.933 294.296 284.705 293.473 286.292C292.677 287.856 291.625 289.18 290.319 290.263C289.038 291.325 287.556 292.102 285.871 292.596C284.209 293.091 282.423 293.25 280.511 293.071ZM280.883 288.695C282.389 288.836 283.751 288.577 284.969 287.92C286.188 287.262 287.182 286.294 287.952 285.017C288.748 283.717 289.23 282.171 289.397 280.379C289.562 278.611 289.383 277.039 288.861 275.665C288.338 274.29 287.537 273.191 286.457 272.367C285.377 271.543 284.072 271.059 282.542 270.916C281.037 270.776 279.677 271.01 278.463 271.62C277.249 272.23 276.258 273.162 275.491 274.416C274.749 275.648 274.294 277.16 274.127 278.952C273.958 280.768 274.132 282.388 274.65 283.81C275.17 285.208 275.968 286.343 277.044 287.215C278.122 288.063 279.402 288.556 280.883 288.695ZM295.823 294.227L299.816 268.617L306.895 269.721L314.75 294.119L312.941 294.274L316.535 271.225L321.87 272.058L317.877 297.668L310.799 296.563L302.943 272.165L304.753 272.01L301.159 295.059L295.823 294.227ZM327.338 299.517L332.903 274.203L338.318 275.393L332.753 300.708L327.338 299.517ZM345.788 304.543C342.547 303.654 340.152 302.225 338.601 300.257C337.057 298.265 336.485 295.906 336.885 293.178L342.023 294.588C341.817 295.975 342.173 297.218 343.091 298.316C344.015 299.391 345.357 300.17 347.116 300.653C348.551 301.046 349.721 301.093 350.624 300.794C351.551 300.501 352.131 299.926 352.366 299.07C352.589 298.26 352.535 297.548 352.205 296.935C351.882 296.299 351.195 295.675 350.143 295.063L345.843 292.501C343.644 291.176 342.147 289.782 341.353 288.32C340.589 286.841 340.449 285.222 340.931 283.463C341.344 281.959 342.081 280.768 343.144 279.889C344.235 278.995 345.566 278.452 347.137 278.26C348.714 278.046 350.451 278.199 352.349 278.72C355.266 279.521 357.401 280.853 358.756 282.718C360.117 284.56 360.603 286.647 360.212 288.979L355.074 287.568C355.179 286.278 354.859 285.22 354.115 284.394C353.394 283.574 352.34 282.973 350.951 282.592C349.747 282.262 348.723 282.23 347.879 282.496C347.034 282.762 346.504 283.288 346.288 284.075C346.123 284.677 346.168 285.286 346.421 285.903C346.682 286.497 347.389 287.139 348.544 287.83L352.843 290.391C355.113 291.735 356.618 293.144 357.359 294.616C358.129 296.072 358.27 297.691 357.781 299.473C357.095 301.973 355.7 303.655 353.596 304.521C351.492 305.387 348.889 305.395 345.788 304.543ZM363.378 309.506L372.863 285.385L378.023 287.415L368.538 311.536L363.378 309.506ZM378.991 315.647L388.476 291.526L393.636 293.555L384.151 317.676L378.991 315.647ZM371.508 295.916L387.054 302.03L385.499 305.983L369.954 299.869L371.508 295.916ZM387.343 318.952L397.093 294.937L402.23 297.023L392.48 321.038L387.343 318.952ZM389.745 319.928L391.343 315.992L406.82 322.277L405.222 326.213L389.745 319.928ZM393.943 309.588L395.514 305.719L409.823 311.53L408.253 315.399L393.943 309.588ZM397.897 299.848L399.495 295.913L414.572 302.035L412.974 305.971L397.897 299.848ZM407.862 327.285L417.612 303.27L428.353 307.632C430.087 308.336 431.478 309.25 432.524 310.375C433.579 311.476 434.245 312.706 434.524 314.062C434.802 315.418 434.652 316.808 434.074 318.231C433.505 319.632 432.649 320.721 431.504 321.5C430.368 322.256 429.033 322.672 427.499 322.749C425.975 322.803 424.345 322.478 422.611 321.774L415.94 319.065L417.47 315.296L424.008 317.951C425.231 318.447 426.278 318.549 427.148 318.255C428.05 317.947 428.709 317.282 429.124 316.26C429.548 315.214 429.546 314.294 429.118 313.499C428.699 312.681 427.867 312.019 426.621 311.513L421.151 309.292L412.999 329.371L407.862 327.285ZM421.404 332.784L416.829 316.395L422.266 318.603L428.342 335.602L421.404 332.784ZM430.276 336.387L440.026 312.372L445.163 314.458L435.413 338.473L430.276 336.387ZM432.678 337.363L434.276 333.427L449.753 339.712L448.155 343.648L432.678 337.363ZM436.876 327.023L438.447 323.154L452.756 328.965L451.186 332.834L436.876 327.023ZM440.83 317.283L442.428 313.348L457.505 319.47L455.907 323.406L440.83 317.283ZM455.486 335.979L461.063 320.138L466.6 322.387L459.555 337.632L455.486 335.979ZM451.075 344.834L453.309 339.33L458.813 341.565L456.579 347.069L451.075 344.834ZM464.639 339.696L470.216 323.855L475.753 326.104L468.709 341.349L464.639 339.696ZM460.228 348.551L462.463 343.047L467.967 345.282L465.732 350.786L460.228 348.551ZM485.827 359.296C482.714 358.032 480.503 356.331 479.195 354.194C477.896 352.034 477.605 349.624 478.323 346.963L483.26 348.968C482.892 350.32 483.099 351.596 483.882 352.795C484.674 353.971 485.914 354.902 487.605 355.589C488.983 356.148 490.139 356.333 491.071 356.142C492.026 355.959 492.67 355.457 493.004 354.634C493.32 353.856 493.351 353.143 493.096 352.496C492.849 351.826 492.24 351.125 491.268 350.394L487.299 347.344C485.271 345.769 483.948 344.209 483.332 342.664C482.748 341.105 482.798 339.481 483.484 337.791C484.071 336.346 484.944 335.25 486.102 334.503C487.291 333.742 488.677 333.36 490.259 333.355C491.851 333.327 493.558 333.684 495.381 334.425C498.183 335.562 500.147 337.137 501.273 339.149C502.409 341.138 502.645 343.267 501.983 345.536L497.046 343.532C497.302 342.263 497.109 341.174 496.468 340.266C495.848 339.367 494.872 338.647 493.537 338.105C492.381 337.635 491.368 337.483 490.498 337.648C489.628 337.813 489.04 338.273 488.733 339.029C488.498 339.607 488.47 340.218 488.65 340.86C488.838 341.481 489.465 342.202 490.53 343.023L494.499 346.072C496.595 347.674 497.923 349.25 498.486 350.799C499.08 352.335 499.029 353.96 498.334 355.672C497.359 358.073 495.776 359.58 493.584 360.193C491.393 360.805 488.807 360.506 485.827 359.296ZM497.817 363.818L507.602 339.817L519.003 344.466C520.781 345.191 522.177 346.123 523.19 347.262C524.225 348.41 524.861 349.68 525.097 351.072C525.355 352.473 525.18 353.918 524.573 355.407C523.966 356.896 523.076 358.062 521.903 358.905C520.73 359.749 519.367 360.23 517.816 360.349C516.295 360.455 514.657 360.149 512.901 359.434L505.567 356.443L507.171 352.51L514.238 355.391C515.416 355.872 516.459 355.921 517.366 355.539C518.304 355.144 518.991 354.414 519.426 353.347C519.861 352.28 519.876 351.289 519.472 350.372C519.09 349.465 518.311 348.771 517.133 348.291L511.132 345.844L502.951 365.912L497.817 363.818ZM532.111 377.72C530.312 377.049 528.761 376.124 527.459 374.946C526.179 373.777 525.182 372.431 524.469 370.91C523.787 369.374 523.416 367.725 523.357 365.961C523.329 364.183 523.663 362.361 524.36 360.494C525.283 358.021 526.617 356.06 528.362 354.611C530.115 353.139 532.118 352.235 534.37 351.897C536.645 351.568 538.985 351.852 541.391 352.75C543.842 353.665 545.808 354.988 547.288 356.719C548.768 358.45 549.689 360.446 550.049 362.707C550.432 364.976 550.162 367.347 549.239 369.82C548.551 371.664 547.602 373.244 546.394 374.56C545.216 375.863 543.855 376.866 542.311 377.571C540.798 378.261 539.164 378.624 537.408 378.661C535.675 378.705 533.909 378.392 532.111 377.72ZM533.612 373.593C535.029 374.122 536.411 374.228 537.759 373.911C539.107 373.595 540.319 372.92 541.396 371.888C542.504 370.841 543.373 369.475 544.002 367.789C544.623 366.125 544.861 364.561 544.715 363.098C544.57 361.635 544.083 360.364 543.256 359.287C542.428 358.21 541.295 357.402 539.856 356.865C538.439 356.336 537.065 356.208 535.734 356.479C534.403 356.751 533.203 357.392 532.135 358.402C531.097 359.397 530.263 360.739 529.634 362.425C528.996 364.134 528.742 365.742 528.871 367.25C529.008 368.736 529.482 370.04 530.293 371.163C531.112 372.262 532.218 373.073 533.612 373.593ZM561.276 386.591C559.407 386.148 557.754 385.424 556.315 384.417C554.9 383.416 553.744 382.205 552.847 380.784C551.979 379.345 551.406 377.754 551.128 376.011C550.879 374.25 550.984 372.401 551.443 370.462C552.052 367.894 553.131 365.782 554.683 364.127C556.239 362.448 558.114 361.302 560.307 360.687C562.523 360.077 564.88 360.069 567.379 360.661C569.925 361.264 572.04 362.332 573.724 363.865C575.408 365.399 576.569 367.265 577.208 369.463C577.87 371.667 577.897 374.054 577.288 376.622C576.835 378.537 576.09 380.223 575.055 381.68C574.048 383.118 572.823 384.283 571.379 385.174C569.963 386.047 568.387 386.611 566.649 386.865C564.935 387.125 563.144 387.034 561.276 386.591ZM562.253 382.309C563.724 382.658 565.109 382.591 566.407 382.109C567.705 381.628 568.824 380.808 569.764 379.649C570.733 378.473 571.425 377.009 571.84 375.258C572.249 373.53 572.291 371.949 571.964 370.515C571.638 369.081 570.997 367.881 570.042 366.915C569.087 365.949 567.862 365.288 566.367 364.934C564.896 364.586 563.517 364.629 562.23 365.064C560.943 365.499 559.832 366.284 558.897 367.419C557.992 368.536 557.331 369.971 556.917 371.722C556.496 373.497 556.444 375.125 556.759 376.605C557.08 378.062 557.712 379.297 558.656 380.31C559.606 381.3 560.805 381.966 562.253 382.309ZM578.65 390.015L581.525 364.256L587.035 364.872L584.159 390.631L578.65 390.015ZM583.9 377.054L596.874 365.971L604.208 366.79L590.59 377.802L583.9 377.054ZM594.571 391.794L583.828 377.046L590.59 377.802L602.048 392.63L594.571 391.794ZM614.209 392.733L614.159 382.257L604.439 366.858L611.099 366.827L618.795 380.508L615.663 380.522L623.195 366.771L629.278 366.743L619.703 382.231L619.753 392.707L614.209 392.733ZM650.812 390.493C647.488 390.983 644.72 390.639 642.509 389.46C640.294 388.258 638.821 386.328 638.089 383.67L643.36 382.894C643.73 384.247 644.556 385.241 645.838 385.877C647.117 386.489 648.659 386.662 650.463 386.396C651.935 386.18 653.025 385.752 653.731 385.115C654.461 384.473 654.762 383.713 654.632 382.835C654.51 382.004 654.174 381.374 653.626 380.945C653.074 380.493 652.194 380.198 650.985 380.061L646.018 379.446C643.471 379.118 641.54 378.444 640.225 377.424C638.931 376.378 638.151 374.952 637.885 373.148C637.657 371.604 637.853 370.217 638.472 368.986C639.111 367.727 640.111 366.694 641.472 365.887C642.829 365.057 644.482 364.498 646.429 364.211C649.42 363.771 651.912 364.132 653.902 365.294C655.89 366.432 657.173 368.148 657.754 370.44L652.483 371.216C652.06 369.992 651.342 369.152 650.328 368.695C649.338 368.234 648.131 368.109 646.707 368.319C645.472 368.501 644.522 368.883 643.856 369.466C643.189 370.05 642.916 370.745 643.035 371.552C643.126 372.17 643.412 372.71 643.892 373.173C644.37 373.612 645.275 373.915 646.61 374.082L651.577 374.697C654.195 375.015 656.14 375.699 657.41 376.749C658.701 377.772 659.482 379.197 659.751 381.026C660.129 383.59 659.529 385.692 657.951 387.331C656.374 388.971 653.994 390.025 650.812 390.493ZM664.715 387.862L658.322 362.742L663.695 361.375L670.088 386.495L664.715 387.862ZM667.227 387.223L666.18 383.106L682.368 378.988L683.415 383.105L667.227 387.223ZM664.475 376.407L663.445 372.36L678.412 368.553L679.442 372.6L664.475 376.407ZM661.882 366.22L660.834 362.103L676.604 358.092L677.651 362.209L661.882 366.22ZM686.708 382.1L686.423 354.568L690.88 352.919L691.873 380.189L686.708 382.1ZM704.535 375.505L687.571 354.143L692.23 352.42L709.937 373.507L704.535 375.505ZM687.814 370.981L701.454 365.936L702.953 369.987L689.313 375.033L687.814 370.981ZM722.059 367.877C719.05 369.371 716.311 369.9 713.844 369.463C711.365 369.005 709.368 367.626 707.85 365.324L712.622 362.955C713.392 364.128 714.484 364.818 715.901 365.026C717.306 365.212 718.826 364.9 720.459 364.089C721.792 363.427 722.696 362.684 723.17 361.859C723.667 361.023 723.717 360.208 723.322 359.412C722.949 358.66 722.435 358.165 721.781 357.927C721.116 357.667 720.188 357.659 718.995 357.902L714.082 358.854C711.559 359.33 709.514 359.286 707.949 358.724C706.394 358.129 705.211 357.015 704.4 355.381C703.706 353.984 703.463 352.604 703.671 351.241C703.889 349.846 704.521 348.555 705.565 347.367C706.599 346.157 707.997 345.114 709.76 344.239C712.468 342.895 714.949 342.467 717.202 342.957C719.443 343.425 721.195 344.659 722.456 346.659L717.684 349.028C716.903 347.995 715.96 347.418 714.855 347.297C713.771 347.165 712.585 347.419 711.295 348.059C710.177 348.614 709.392 349.272 708.939 350.033C708.486 350.794 708.441 351.539 708.804 352.27C709.081 352.829 709.52 353.254 710.12 353.546C710.71 353.816 711.665 353.824 712.986 353.57L717.899 352.619C720.487 352.111 722.548 352.16 724.081 352.765C725.625 353.339 726.808 354.453 727.63 356.108C728.783 358.43 728.863 360.614 727.869 362.661C726.876 364.709 724.939 366.447 722.059 367.877ZM745.307 354.507C743.693 355.546 742.024 356.235 740.301 356.573C738.598 356.898 736.924 356.891 735.279 356.552C733.64 356.179 732.097 355.488 730.648 354.48C729.207 353.438 727.947 352.079 726.869 350.404C725.44 348.184 724.667 345.942 724.551 343.676C724.421 341.391 724.895 339.245 725.972 337.239C727.07 335.219 728.698 333.515 730.857 332.125C733.057 330.709 735.293 329.927 737.566 329.777C739.838 329.627 741.988 330.085 744.015 331.149C746.061 332.201 747.799 333.837 749.228 336.057C750.294 337.712 750.992 339.417 751.323 341.173C751.662 342.896 751.651 344.587 751.292 346.246C750.939 347.871 750.253 349.398 749.231 350.826C748.23 352.241 746.922 353.468 745.307 354.507ZM742.9 350.833C744.171 350.015 745.083 348.971 745.636 347.702C746.189 346.433 746.374 345.058 746.192 343.577C746.016 342.063 745.442 340.549 744.467 339.035C743.506 337.542 742.396 336.416 741.136 335.656C739.877 334.897 738.568 334.526 737.21 334.544C735.851 334.562 734.526 334.987 733.235 335.818C731.963 336.636 731.038 337.66 730.459 338.889C729.88 340.118 729.676 341.462 729.845 342.923C730.022 344.351 730.598 345.821 731.572 347.335C732.559 348.869 733.696 350.035 734.981 350.835C736.253 351.615 737.582 352.016 738.966 352.038C740.337 352.04 741.649 351.639 742.9 350.833ZM759.754 344.439L743.345 324.373L748.89 319.838L772.303 330.272L771.211 331.723L756.442 313.663L760.623 310.245L777.032 330.311L771.486 334.846L748.074 324.413L749.166 322.962L763.934 341.021L759.754 344.439ZM785.605 322.424L767.379 303.992L771.322 300.094L789.547 318.526L785.605 322.424ZM799.853 309.635C797.35 311.876 794.851 313.115 792.357 313.351C789.846 313.57 787.553 312.772 785.478 310.957L789.447 307.403C790.5 308.328 791.738 308.703 793.158 308.526C794.562 308.332 795.944 307.626 797.303 306.409C798.411 305.417 799.084 304.46 799.322 303.538C799.578 302.6 799.409 301.801 798.817 301.139C798.257 300.513 797.629 300.173 796.936 300.118C796.226 300.044 795.329 300.284 794.245 300.836L789.762 303.061C787.457 304.192 785.474 304.694 783.816 304.569C782.159 304.409 780.722 303.65 779.505 302.291C778.464 301.129 777.863 299.863 777.7 298.495C777.539 297.092 777.804 295.679 778.494 294.255C779.169 292.814 780.239 291.437 781.705 290.124C783.958 288.107 786.235 287.035 788.536 286.907C790.822 286.761 792.839 287.484 794.587 289.076L790.618 292.63C789.59 291.843 788.528 291.538 787.43 291.715C786.35 291.876 785.274 292.437 784.202 293.398C783.272 294.23 782.69 295.073 782.456 295.927C782.222 296.781 782.377 297.512 782.922 298.12C783.338 298.585 783.874 298.878 784.53 298.999C785.17 299.103 786.093 298.856 787.299 298.26L791.781 296.034C794.141 294.856 796.14 294.354 797.779 294.53C799.42 294.672 800.857 295.431 802.09 296.808C803.819 298.739 804.477 300.823 804.065 303.061C803.653 305.298 802.249 307.49 799.853 309.635ZM813.179 298.133L799.116 276.358L803.773 273.351L817.836 295.125L813.179 298.133ZM827.272 289.033L813.208 267.258L817.865 264.25L831.929 286.025L827.272 289.033ZM806.88 283.601L820.911 274.54L823.216 278.109L809.184 287.17L806.88 283.601ZM833.754 284.99L822.245 261.764L827.213 259.303L838.722 282.529L833.754 284.99ZM836.076 283.839L834.19 280.033L849.158 272.618L851.044 276.425L836.076 283.839ZM831.121 273.839L829.267 270.097L843.106 263.242L844.96 266.984L831.121 273.839ZM826.454 264.42L824.568 260.613L839.148 253.39L841.034 257.197L826.454 264.42ZM852.468 275.831L843.331 251.574L854.179 247.489C855.931 246.83 857.572 246.558 859.103 246.674C860.626 246.767 861.95 247.217 863.074 248.025C864.199 248.832 865.032 249.955 865.574 251.392C866.107 252.807 866.217 254.189 865.904 255.538C865.583 256.864 864.886 258.076 863.812 259.173C862.729 260.247 861.312 261.114 859.56 261.774L852.822 264.311L851.388 260.504L857.991 258.018C859.226 257.553 860.064 256.917 860.504 256.11C860.957 255.272 860.99 254.337 860.601 253.304C860.203 252.248 859.577 251.573 858.722 251.279C857.86 250.963 856.799 251.042 855.542 251.516L850.017 253.596L857.656 273.878L852.468 275.831ZM866.146 270.681L851.664 261.747L857.155 259.679L873.154 268.042L866.146 270.681ZM873.992 267.845L867.165 242.84L872.513 241.38L879.341 266.385L873.992 267.845ZM876.493 267.163L875.374 263.065L891.488 258.667L892.607 262.765L876.493 267.163ZM873.553 256.396L872.453 252.368L887.352 248.302L888.452 252.33L873.553 256.396ZM870.785 246.255L869.666 242.157L885.363 237.873L886.482 241.971L870.785 246.255ZM893.634 252.465L889.443 236.201L895.294 234.985L897.934 251.571L893.634 252.465ZM894.901 262.276L893.692 256.461L899.508 255.252L900.717 261.068L894.901 262.276ZM903.212 250.602L899.648 234.19L905.542 233.199L907.543 249.874L903.212 250.602ZM904.102 260.455L903.117 254.597L908.975 253.613L909.96 259.471L904.102 260.455ZM930.513 257.675C927.162 257.931 924.425 257.393 922.302 256.063C920.176 254.709 918.842 252.681 918.298 249.979L923.61 249.573C923.884 250.948 924.638 251.998 925.873 252.722C927.106 253.422 928.632 253.702 930.451 253.563C931.934 253.45 933.051 253.1 933.8 252.513C934.574 251.925 934.927 251.188 934.859 250.302C934.795 249.465 934.504 248.813 933.987 248.347C933.468 247.857 932.611 247.501 931.414 247.28L926.503 246.319C923.985 245.813 922.106 245.006 920.865 243.897C919.647 242.763 918.969 241.286 918.829 239.468C918.71 237.912 919.003 236.542 919.706 235.357C920.432 234.146 921.502 233.186 922.916 232.476C924.328 231.742 926.015 231.301 927.978 231.151C930.993 230.92 933.453 231.454 935.357 232.753C937.26 234.028 938.421 235.829 938.84 238.156L933.527 238.561C933.191 237.311 932.533 236.423 931.554 235.896C930.599 235.367 929.403 235.158 927.968 235.267C926.723 235.362 925.748 235.678 925.043 236.213C924.338 236.748 924.017 237.423 924.079 238.236C924.126 238.858 924.374 239.417 924.821 239.913C925.266 240.384 926.149 240.75 927.468 241.01L932.38 241.971C934.97 242.471 936.862 243.289 938.056 244.425C939.272 245.536 939.951 247.013 940.092 248.855C940.289 251.44 939.544 253.494 937.855 255.02C936.167 256.545 933.719 257.43 930.513 257.675ZM942.165 256.566L942.411 230.648L954.723 230.767C956.643 230.785 958.284 231.137 959.645 231.822C961.031 232.507 962.09 233.454 962.822 234.661C963.579 235.868 963.95 237.276 963.934 238.884C963.919 240.491 963.522 241.904 962.742 243.12C961.962 244.337 960.873 245.286 959.475 245.969C958.1 246.628 956.465 246.948 954.569 246.93L946.649 246.853L946.69 242.606L954.322 242.679C955.594 242.691 956.581 242.353 957.283 241.664C958.01 240.951 958.379 240.018 958.39 238.866C958.401 237.714 958.05 236.787 957.337 236.084C956.647 235.381 955.667 235.024 954.395 235.011L947.915 234.949L947.709 256.62L942.165 256.566ZM977.691 258.329C975.778 258.164 974.037 257.688 972.466 256.902C970.92 256.118 969.6 255.088 968.505 253.813C967.437 252.516 966.638 251.026 966.109 249.342C965.606 247.637 965.44 245.791 965.611 243.807C965.838 241.177 966.598 238.93 967.892 237.066C969.187 235.179 970.874 233.771 972.954 232.843C975.057 231.917 977.388 231.564 979.947 231.785C982.553 232.011 984.801 232.759 986.691 234.03C988.58 235.302 990.001 236.979 990.954 239.06C991.93 241.144 992.305 243.501 992.078 246.131C991.909 248.092 991.418 249.868 990.606 251.46C989.82 253.03 988.778 254.361 987.479 255.454C986.206 256.524 984.729 257.312 983.047 257.817C981.389 258.324 979.604 258.494 977.691 258.329ZM978.033 253.95C979.539 254.081 980.9 253.813 982.113 253.147C983.327 252.481 984.315 251.506 985.076 250.223C985.863 248.918 986.334 247.369 986.489 245.576C986.642 243.806 986.452 242.236 985.92 240.865C985.388 239.494 984.579 238.401 983.493 237.584C982.407 236.768 981.099 236.293 979.569 236.161C978.063 236.031 976.704 236.275 975.495 236.893C974.285 237.511 973.301 238.449 972.542 239.709C971.808 240.946 971.364 242.461 971.21 244.255C971.053 246.072 971.238 247.69 971.766 249.109C972.296 250.503 973.102 251.633 974.184 252.497C975.267 253.338 976.551 253.822 978.033 253.95ZM1006.44 260.854C1004.53 260.684 1002.79 260.203 1001.22 259.413C999.677 258.624 998.359 257.591 997.268 256.313C996.203 255.013 995.409 253.521 994.884 251.836C994.386 250.129 994.225 248.283 994.402 246.299C994.636 243.669 995.402 241.425 996.7 239.565C998.001 237.681 999.692 236.278 1001.77 235.355C1003.88 234.434 1006.21 234.088 1008.77 234.317C1011.38 234.549 1013.62 235.304 1015.51 236.58C1017.39 237.857 1018.81 239.537 1019.76 241.622C1020.73 243.708 1021.1 246.066 1020.86 248.696C1020.69 250.656 1020.19 252.431 1019.38 254.021C1018.59 255.589 1017.54 256.917 1016.24 258.005C1014.96 259.072 1013.48 259.856 1011.8 260.356C1010.14 260.859 1008.35 261.025 1006.44 260.854ZM1006.8 256.476C1008.3 256.611 1009.66 256.347 1010.88 255.684C1012.09 255.021 1013.08 254.05 1013.85 252.769C1014.64 251.466 1015.11 249.918 1015.27 248.125C1015.43 246.356 1015.25 244.785 1014.72 243.413C1014.19 242.041 1013.38 240.945 1012.3 240.125C1011.22 239.306 1009.91 238.828 1008.38 238.691C1006.87 238.557 1005.52 238.797 1004.3 239.412C1003.09 240.027 1002.11 240.963 1001.34 242.22C1000.61 243.455 1000.16 244.969 999.999 246.762C999.837 248.579 1000.02 250.197 1000.54 251.617C1001.07 253.014 1001.87 254.146 1002.95 255.013C1004.03 255.856 1005.31 256.344 1006.8 256.476ZM1022.57 261.931L1024.87 236.114L1030.39 236.607L1028.09 262.424L1022.57 261.931ZM1027.53 248.857L1040.25 237.487L1047.6 238.142L1034.23 249.455L1027.53 248.857ZM1038.53 263.355L1027.46 248.85L1034.23 249.455L1046.02 264.024L1038.53 263.355ZM1057 264.746L1057.67 254.292L1049.03 238.263L1055.67 238.689L1062.41 252.864L1059.29 252.664L1067.74 239.461L1073.81 239.849L1063.2 254.646L1062.53 265.1L1057 264.746ZM1093.01 265.881C1089.65 265.964 1086.95 265.287 1084.89 263.85C1082.84 262.389 1081.61 260.295 1081.21 257.568L1086.53 257.435C1086.74 258.823 1087.44 259.91 1088.63 260.696C1089.83 261.459 1091.34 261.817 1093.16 261.772C1094.65 261.735 1095.78 261.443 1096.56 260.895C1097.36 260.347 1097.75 259.629 1097.73 258.741C1097.71 257.902 1097.45 257.236 1096.96 256.744C1096.47 256.228 1095.63 255.829 1094.45 255.546L1089.59 254.334C1087.1 253.7 1085.27 252.797 1084.08 251.626C1082.93 250.431 1082.32 248.921 1082.28 247.098C1082.24 245.538 1082.6 244.185 1083.37 243.038C1084.15 241.866 1085.27 240.962 1086.72 240.326C1088.17 239.665 1089.87 239.311 1091.84 239.262C1094.87 239.187 1097.29 239.847 1099.13 241.241C1100.96 242.612 1102.03 244.47 1102.33 246.815L1097 246.948C1096.73 245.682 1096.12 244.761 1095.17 244.185C1094.24 243.608 1093.06 243.337 1091.62 243.373C1090.37 243.404 1089.38 243.668 1088.65 244.167C1087.92 244.665 1087.56 245.322 1087.58 246.138C1087.6 246.762 1087.82 247.332 1088.24 247.85C1088.66 248.344 1089.52 248.754 1090.83 249.082L1095.68 250.294C1098.24 250.926 1100.09 251.841 1101.23 253.037C1102.38 254.208 1102.98 255.718 1103.03 257.565C1103.1 260.157 1102.25 262.17 1100.48 263.607C1098.72 265.043 1096.23 265.801 1093.01 265.881ZM1106.59 265.088L1104.39 239.261L1109.92 238.791L1112.12 264.618L1106.59 265.088ZM1109.18 264.868L1108.82 260.635L1125.46 259.22L1125.82 263.453L1109.18 264.868ZM1108.23 253.748L1107.88 249.587L1123.26 248.279L1123.62 252.44L1108.23 253.748ZM1107.34 243.274L1106.98 239.042L1123.19 237.663L1123.55 241.895L1107.34 243.274ZM1128.69 263.13L1134.09 236.132L1138.79 235.438L1134.14 262.326L1128.69 263.13ZM1147.49 260.354L1135.3 235.953L1140.22 235.227L1153.19 259.513L1147.49 260.354ZM1132.07 252.479L1146.45 250.355L1147.09 254.628L1132.7 256.753L1132.07 252.479ZM1165.75 257.218C1162.46 257.904 1159.68 257.725 1157.4 256.681C1155.12 255.613 1153.53 253.774 1152.64 251.164L1157.86 250.076C1158.31 251.404 1159.19 252.347 1160.51 252.906C1161.82 253.441 1163.37 253.522 1165.16 253.149C1166.61 252.845 1167.67 252.353 1168.34 251.675C1169.03 250.991 1169.29 250.215 1169.11 249.345C1168.93 248.523 1168.56 247.914 1167.99 247.519C1167.41 247.1 1166.51 246.859 1165.3 246.793L1160.3 246.475C1157.74 246.299 1155.77 245.742 1154.4 244.802C1153.05 243.835 1152.18 242.458 1151.81 240.673C1151.49 239.146 1151.6 237.749 1152.15 236.483C1152.71 235.189 1153.65 234.098 1154.96 233.212C1156.26 232.302 1157.88 231.645 1159.81 231.243C1162.77 230.625 1165.28 230.837 1167.33 231.879C1169.38 232.897 1170.77 234.533 1171.48 236.786L1166.27 237.875C1165.77 236.679 1165.01 235.883 1163.97 235.487C1162.95 235.086 1161.74 235.033 1160.33 235.327C1159.11 235.582 1158.18 236.02 1157.55 236.642C1156.92 237.264 1156.69 237.975 1156.86 238.773C1156.98 239.384 1157.3 239.906 1157.81 240.34C1158.31 240.75 1159.23 240.998 1160.58 241.086L1165.57 241.404C1168.2 241.565 1170.18 242.132 1171.52 243.105C1172.87 244.049 1173.73 245.426 1174.11 247.235C1174.64 249.772 1174.16 251.906 1172.69 253.636C1171.21 255.367 1168.9 256.561 1165.75 257.218ZM1191.2 251.013C1189.35 251.52 1187.55 251.677 1185.8 251.483C1184.08 251.283 1182.48 250.775 1181.02 249.957C1179.56 249.111 1178.3 247.989 1177.22 246.593C1176.16 245.167 1175.36 243.493 1174.84 241.572C1174.14 239.026 1174.07 236.655 1174.64 234.459C1175.2 232.239 1176.3 230.334 1177.93 228.743C1179.58 227.146 1181.64 226.008 1184.12 225.329C1186.64 224.638 1189.01 224.562 1191.22 225.101C1193.44 225.639 1195.35 226.72 1196.97 228.343C1198.6 229.96 1199.77 232.041 1200.47 234.588C1200.99 236.486 1201.14 238.322 1200.93 240.097C1200.74 241.842 1200.22 243.452 1199.38 244.926C1198.56 246.371 1197.45 247.621 1196.04 248.678C1194.66 249.727 1193.05 250.506 1191.2 251.013ZM1190 246.787C1191.46 246.387 1192.64 245.665 1193.55 244.62C1194.46 243.575 1195.05 242.319 1195.32 240.851C1195.6 239.354 1195.51 237.738 1195.03 236.002C1194.56 234.289 1193.84 232.882 1192.87 231.78C1191.89 230.678 1190.76 229.932 1189.46 229.542C1188.15 229.152 1186.76 229.16 1185.28 229.565C1183.82 229.965 1182.63 230.664 1181.71 231.663C1180.79 232.661 1180.19 233.883 1179.92 235.327C1179.66 236.742 1179.77 238.317 1180.24 240.053C1180.72 241.813 1181.46 243.266 1182.45 244.415C1183.43 245.54 1184.57 246.32 1185.89 246.757C1187.19 247.17 1188.57 247.18 1190 246.787ZM1207.45 246.039L1198.99 221.536L1205.77 219.2L1224.12 237.088L1222.6 238.072L1214.99 216.019L1220.09 214.258L1228.55 238.762L1221.77 241.097L1203.42 223.209L1204.94 222.226L1212.55 244.279L1207.45 246.039ZM1238.96 234.814L1229.2 210.802L1234.33 208.714L1244.1 232.726L1238.96 234.814ZM1257.67 227.093C1254.6 228.464 1251.85 228.88 1249.4 228.344C1246.94 227.785 1245 226.326 1243.58 223.964L1248.44 221.792C1249.16 222.994 1250.23 223.728 1251.63 223.994C1253.03 224.237 1254.56 223.987 1256.23 223.243C1257.59 222.637 1258.52 221.931 1259.03 221.126C1259.56 220.311 1259.64 219.498 1259.28 218.687C1258.94 217.92 1258.44 217.404 1257.8 217.14C1257.15 216.854 1256.22 216.808 1255.02 217.002L1250.07 217.753C1247.53 218.126 1245.49 217.999 1243.95 217.373C1242.42 216.716 1241.28 215.554 1240.54 213.889C1239.9 212.465 1239.71 211.076 1239.98 209.723C1240.25 208.338 1240.93 207.074 1242.03 205.929C1243.11 204.762 1244.55 203.777 1246.35 202.975C1249.11 201.742 1251.6 201.415 1253.83 201.996C1256.05 202.555 1257.75 203.859 1258.93 205.909L1254.07 208.082C1253.33 207.018 1252.41 206.403 1251.31 206.237C1250.23 206.061 1249.04 206.267 1247.72 206.854C1246.58 207.363 1245.77 207.988 1245.29 208.73C1244.81 209.472 1244.73 210.215 1245.06 210.96C1245.32 211.53 1245.74 211.973 1246.33 212.288C1246.9 212.582 1247.86 212.629 1249.19 212.429L1254.14 211.678C1256.74 211.276 1258.8 211.409 1260.31 212.077C1261.83 212.712 1262.96 213.874 1263.72 215.561C1264.77 217.928 1264.77 220.114 1263.69 222.119C1262.61 224.124 1260.61 225.782 1257.67 227.093ZM1276.11 218.07L1264.02 195.141L1268.92 192.555L1281.01 215.484L1276.11 218.07ZM1290.95 210.247L1278.86 187.318L1283.76 184.732L1295.85 207.661L1290.95 210.247ZM1271.12 203.04L1285.89 195.25L1287.87 199.008L1273.1 206.798L1271.12 203.04ZM1299.54 205.602L1286.34 183.293L1291.11 180.47L1304.31 202.78L1299.54 205.602ZM1301.77 204.283L1299.61 200.626L1313.98 192.123L1316.14 195.779L1301.77 204.283ZM1296.09 194.677L1293.96 191.083L1307.25 183.221L1309.38 186.815L1296.09 194.677ZM1290.73 185.629L1288.57 181.973L1302.57 173.689L1304.74 177.346L1290.73 185.629ZM1319.05 193.963L1304.87 172.262L1314.57 165.923C1316.14 164.899 1317.68 164.278 1319.2 164.059C1320.71 163.82 1322.1 163.973 1323.37 164.518C1324.65 165.062 1325.7 165.977 1326.54 167.263C1327.37 168.529 1327.78 169.854 1327.76 171.239C1327.74 172.603 1327.32 173.937 1326.51 175.241C1325.68 176.525 1324.49 177.678 1322.92 178.702L1316.89 182.639L1314.67 179.234L1320.58 175.375C1321.68 174.653 1322.36 173.851 1322.62 172.968C1322.88 172.052 1322.71 171.131 1322.1 170.207C1321.49 169.263 1320.73 168.74 1319.83 168.638C1318.92 168.516 1317.9 168.823 1316.78 169.558L1311.83 172.787L1323.69 190.931L1319.05 193.963ZM1331.28 185.97L1315.21 180.387L1320.12 177.178L1337.55 181.875L1331.28 185.97ZM1339.71 180.359L1324.62 159.283L1329.13 156.056L1344.22 177.132L1339.71 180.359ZM1341.82 178.85L1339.34 175.396L1352.93 165.672L1355.4 169.126L1341.82 178.85ZM1335.32 169.776L1332.89 166.38L1345.45 157.39L1347.88 160.786L1335.32 169.776ZM1329.2 161.228L1326.73 157.774L1339.96 148.302L1342.43 151.756L1329.2 161.228ZM1352.85 158.696L1342.04 145.837L1346.79 142.213L1356.34 156.033L1352.85 158.696ZM1358.23 166.998L1354.63 162.275L1359.35 158.672L1362.95 163.396L1358.23 166.998ZM1360.71 152.625L1349.68 139.96L1354.36 136.252L1364.15 149.9L1360.71 152.625ZM1366.24 160.83L1362.55 156.172L1367.21 152.486L1370.89 157.145L1366.24 160.83ZM1388.23 143.046C1385.68 145.235 1383.15 146.421 1380.65 146.606C1378.14 146.772 1375.86 145.926 1373.83 144.069L1377.87 140.599C1378.9 141.545 1380.13 141.945 1381.56 141.798C1382.96 141.633 1384.36 140.956 1385.74 139.768C1386.87 138.799 1387.57 137.856 1387.82 136.94C1388.1 136.007 1387.95 135.204 1387.37 134.531C1386.82 133.893 1386.2 133.54 1385.51 133.47C1384.8 133.382 1383.9 133.603 1382.8 134.132L1378.27 136.264C1375.95 137.346 1373.95 137.807 1372.3 137.647C1370.64 137.453 1369.22 136.664 1368.04 135.281C1367.02 134.097 1366.44 132.819 1366.31 131.448C1366.18 130.042 1366.47 128.635 1367.19 127.226C1367.9 125.799 1368.99 124.444 1370.49 123.162C1372.78 121.192 1375.08 120.167 1377.38 120.088C1379.67 119.989 1381.67 120.754 1383.39 122.382L1379.35 125.853C1378.34 125.044 1377.28 124.717 1376.18 124.872C1375.1 125.011 1374.01 125.549 1372.92 126.487C1371.97 127.3 1371.37 128.131 1371.12 128.98C1370.87 129.829 1371.01 130.563 1371.54 131.182C1371.94 131.655 1372.47 131.959 1373.13 132.094C1373.77 132.211 1374.69 131.983 1375.91 131.412L1380.44 129.281C1382.82 128.152 1384.83 127.692 1386.47 127.901C1388.1 128.077 1389.53 128.866 1390.73 130.268C1392.42 132.235 1393.03 134.332 1392.57 136.561C1392.12 138.789 1390.67 140.951 1388.23 143.046ZM1397.86 134.31L1380.71 114.877L1389.94 106.73C1391.38 105.459 1392.83 104.623 1394.3 104.222C1395.79 103.805 1397.21 103.8 1398.56 104.207C1399.93 104.598 1401.15 105.397 1402.22 106.603C1403.28 107.808 1403.93 109.124 1404.16 110.55C1404.4 111.976 1404.22 113.41 1403.64 114.853C1403.06 116.262 1402.06 117.594 1400.64 118.848L1394.7 124.089L1391.89 120.904L1397.61 115.854C1398.56 115.012 1399.07 114.1 1399.13 113.118C1399.2 112.102 1398.85 111.162 1398.08 110.298C1397.32 109.434 1396.44 108.98 1395.44 108.935C1394.46 108.873 1393.49 109.264 1392.53 110.105L1387.68 114.393L1402.02 130.641L1397.86 134.31ZM1425.55 110.354C1424.11 111.624 1422.56 112.556 1420.91 113.151C1419.28 113.729 1417.62 113.974 1415.94 113.886C1414.27 113.765 1412.64 113.315 1411.05 112.536C1409.47 111.723 1408.02 110.57 1406.7 109.077C1404.96 107.097 1403.85 104.997 1403.4 102.775C1402.92 100.535 1403.07 98.342 1403.83 96.1961C1404.61 94.0343 1405.97 92.1038 1407.89 90.4045C1409.85 88.6734 1411.94 87.5627 1414.17 87.0722C1416.39 86.5818 1418.59 86.7101 1420.75 87.4571C1422.93 88.1883 1424.9 89.5435 1426.64 91.5228C1427.95 92.9983 1428.89 94.5792 1429.49 96.2654C1430.08 97.9178 1430.32 99.5908 1430.22 101.285C1430.12 102.944 1429.67 104.557 1428.87 106.123C1428.1 107.673 1426.99 109.083 1425.55 110.354ZM1422.61 107.085C1423.75 106.084 1424.49 104.915 1424.85 103.577C1425.2 102.239 1425.18 100.851 1424.78 99.4148C1424.37 97.9445 1423.58 96.5346 1422.39 95.1851C1421.21 93.8536 1419.94 92.9074 1418.58 92.3465C1417.22 91.7857 1415.87 91.6165 1414.53 91.839C1413.19 92.0615 1411.95 92.6809 1410.8 93.6973C1409.66 94.6979 1408.9 95.8492 1408.52 97.1513C1408.13 98.4534 1408.13 99.8137 1408.52 101.232C1408.91 102.617 1409.7 103.984 1410.89 105.333C1412.1 106.701 1413.4 107.683 1414.79 108.28C1416.16 108.859 1417.54 109.055 1418.91 108.868C1420.26 108.664 1421.5 108.069 1422.61 107.085ZM1447.21 91.2308C1445.77 92.5013 1444.23 93.4336 1442.58 94.0277C1440.94 94.606 1439.28 94.8513 1437.61 94.7636C1435.93 94.6422 1434.3 94.192 1432.72 93.4131C1431.14 92.6003 1429.69 91.4472 1428.37 89.9537C1426.62 87.9744 1425.52 85.8738 1425.06 83.6519C1424.59 81.412 1424.73 79.2191 1425.5 77.0733C1426.28 74.9115 1427.63 72.981 1429.55 71.2817C1431.52 69.5506 1433.61 68.4399 1435.83 67.9494C1438.06 67.459 1440.25 67.5873 1442.41 68.3343C1444.6 69.0655 1446.56 70.4207 1448.31 72.4C1449.61 73.8755 1450.56 75.4563 1451.15 77.1426C1451.74 78.795 1451.99 80.468 1451.88 82.1618C1451.78 83.8216 1451.33 85.4345 1450.54 87.0002C1449.76 88.5501 1448.65 89.9603 1447.21 91.2308ZM1444.28 87.9618C1445.41 86.9613 1446.16 85.792 1446.51 84.4538C1446.87 83.1157 1446.84 81.7285 1446.44 80.292C1446.04 78.8217 1445.24 77.4118 1444.05 76.0623C1442.87 74.7307 1441.61 73.7846 1440.25 73.2237C1438.89 72.6629 1437.54 72.4937 1436.2 72.7162C1434.86 72.9387 1433.61 73.5581 1432.46 74.5745C1431.33 75.5751 1430.57 76.7264 1430.18 78.0285C1429.79 79.3306 1429.79 80.6909 1430.18 82.1093C1430.57 83.4939 1431.36 84.861 1432.55 86.2105C1433.76 87.578 1435.06 88.5602 1436.45 89.157C1437.83 89.7359 1439.2 89.932 1440.57 89.7455C1441.93 89.541 1443.16 88.9464 1444.28 87.9618ZM1459.09 80.2683L1441.93 60.8352L1446.09 57.1666L1463.24 76.5997L1459.09 80.2683ZM1453.01 67.6726L1453.51 50.6155L1459.04 45.732L1458.06 63.2178L1453.01 67.6726ZM1471.1 69.6675L1452.96 67.7202L1458.06 63.2178L1476.74 64.6887L1471.1 69.6675ZM1484.75 57.6211L1477.81 49.7669L1460.36 44.5723L1465.35 40.1652L1480.15 45.3983L1477.8 47.4708L1474.42 32.161L1478.98 28.1351L1481.97 46.0983L1488.9 53.9525L1484.75 57.6211Z" fill="#D80A36"/>
</svg>
